<svg xmlns="http://www.w3.org/2000/svg" width="24" height="24" viewBox="0 0 24 24">
    <path fill="#222" fill-rule="evenodd" d="M16.538 14.118l-2.971 2.94-.01.009a.602.602 0 0 0 0 .848.602.602 0 0 0 .848 0c.016-.015.02-.036.036-.051l1.792-1.792.846-.849s.582.546.595.539a.591.591 0 0 0 .677-.113.602.602 0 0 0 0-.849l-.423-.423s-.08-.09-.123-.134a1.002 1.002 0 0 0-1.267-.125zm2.39 2.951l.272.275a.602.602 0 0 0 .849 0 .602.602 0 0 0 0-.85l-.275-.274-.002.003c-.003-.003-.005-.008-.008-.01a.602.602 0 0 0-.849 0 .602.602 0 0 0 0 .849l.013.007zM20.8 0H3.2C1.43 0 0 1.43 0 3.2v17.6A3.2 3.2 0 0 0 3.2 24h17.6a3.2 3.2 0 0 0 3.2-3.2V3.2A3.2 3.2 0 0 0 20.8 0zm1.6 20.8c0 .885-.715 1.6-1.6 1.6H3.2c-.885 0-1.6-.715-1.6-1.6v-1.897l4.256-4.075c.144-.12.236-.128.38-.002l3.27 2.674c.281.197.589.444.83.444.24 0 .528-.082.838-.393l5.941-5.94c.031.002.062.01.095.01.01 0 .02-.003.031-.003l5.159 5.538V20.8zm0-5.992l-4.272-4.585a1 1 0 0 0-.918-.603c-.369 0-.687.2-.859.498l-5.846 5.846c-.17.12-.17.12-.354 0l-3.318-2.715a.995.995 0 0 0-.797-.403c-.167 0-.323.046-.462.118l-.156.1a1.104 1.104 0 0 0-.139.13L1.6 16.72V3.2c0-.885.715-1.6 1.6-1.6h17.6c.885 0 1.6.715 1.6 1.6v11.608zM7.2 4a2.4 2.4 0 1 0 0 4.8 2.4 2.4 0 0 0 0-4.8zm0 3.2a.801.801 0 0 1 0-1.6.801.801 0 0 1 0 1.6z"/>
</svg>
